<mxfile host="app.diagrams.net" agent="Mozilla/5.0 (Windows NT 10.0; Win64; x64) AppleWebKit/537.36 (KHTML, like Gecko) Chrome/131.0.0.0 Safari/537.36 Edg/131.0.0.0" version="25.0.3">
  <diagram name="第 1 页" id="PckmU6Xt-LkvL1CVS-IU">
    <mxGraphModel dx="1213" dy="768" grid="1" gridSize="10" guides="1" tooltips="1" connect="1" arrows="1" fold="1" page="1" pageScale="1" pageWidth="827" pageHeight="1169" math="0" shadow="0">
      <root>
        <mxCell id="0" />
        <mxCell id="1" parent="0" />
        <mxCell id="4vzzuv3VRGTA68ks-000-1" value="&lt;font style=&quot;font-size: 18px;&quot;&gt;&lt;b&gt;面部表情&lt;/b&gt;&lt;/font&gt;&lt;div&gt;&lt;font style=&quot;font-size: 18px;&quot;&gt;&lt;b&gt;分析方法&lt;/b&gt;&lt;/font&gt;&lt;/div&gt;" style="rounded=1;whiteSpace=wrap;html=1;fillColor=#dae8fc;strokeColor=#6c8ebf;gradientColor=none;glass=0;shadow=1;" vertex="1" parent="1">
          <mxGeometry x="50" y="280" width="110" height="70" as="geometry" />
        </mxCell>
        <mxCell id="4vzzuv3VRGTA68ks-000-2" value="" style="strokeWidth=2;html=1;shape=mxgraph.flowchart.annotation_2;align=left;labelPosition=right;pointerEvents=1;" vertex="1" parent="1">
          <mxGeometry x="160" y="260" width="50" height="110" as="geometry" />
        </mxCell>
        <mxCell id="4vzzuv3VRGTA68ks-000-4" value="&lt;span style=&quot;font-size: 18px;&quot;&gt;&lt;b&gt;基于传统&lt;/b&gt;&lt;/span&gt;&lt;div&gt;&lt;span style=&quot;font-size: 18px;&quot;&gt;&lt;b&gt;特征的方法&lt;/b&gt;&lt;/span&gt;&lt;/div&gt;" style="rounded=1;whiteSpace=wrap;html=1;fillColor=#dae8fc;strokeColor=#6c8ebf;gradientColor=none;glass=0;shadow=1;" vertex="1" parent="1">
          <mxGeometry x="210" y="220" width="120" height="70" as="geometry" />
        </mxCell>
        <mxCell id="4vzzuv3VRGTA68ks-000-6" value="&lt;span style=&quot;font-size: 18px;&quot;&gt;&lt;b&gt;深度学习&lt;/b&gt;&lt;/span&gt;&lt;div&gt;&lt;span style=&quot;font-size: 18px;&quot;&gt;&lt;b&gt;方法&lt;/b&gt;&lt;/span&gt;&lt;/div&gt;" style="rounded=1;whiteSpace=wrap;html=1;fillColor=#dae8fc;strokeColor=#6c8ebf;gradientColor=none;glass=0;shadow=1;" vertex="1" parent="1">
          <mxGeometry x="210" y="330" width="120" height="70" as="geometry" />
        </mxCell>
        <mxCell id="4vzzuv3VRGTA68ks-000-7" value="" style="strokeWidth=2;html=1;shape=mxgraph.flowchart.annotation_2;align=left;labelPosition=right;pointerEvents=1;" vertex="1" parent="1">
          <mxGeometry x="330" y="215" width="50" height="80" as="geometry" />
        </mxCell>
        <mxCell id="4vzzuv3VRGTA68ks-000-8" value="&lt;span style=&quot;font-size: 18px;&quot;&gt;&lt;b&gt;Haar特征&lt;/b&gt;&lt;/span&gt;" style="rounded=1;whiteSpace=wrap;html=1;fillColor=#dae8fc;strokeColor=#6c8ebf;gradientColor=none;glass=0;shadow=1;" vertex="1" parent="1">
          <mxGeometry x="380" y="190" width="120" height="50" as="geometry" />
        </mxCell>
        <mxCell id="4vzzuv3VRGTA68ks-000-9" value="&lt;span style=&quot;font-size: 18px;&quot;&gt;&lt;b&gt;LBP&lt;/b&gt;&lt;/span&gt;" style="rounded=1;whiteSpace=wrap;html=1;fillColor=#dae8fc;strokeColor=#6c8ebf;gradientColor=none;glass=0;shadow=1;" vertex="1" parent="1">
          <mxGeometry x="380" y="270" width="120" height="50" as="geometry" />
        </mxCell>
        <mxCell id="4vzzuv3VRGTA68ks-000-10" value="&lt;span style=&quot;font-size: 18px;&quot;&gt;&lt;b&gt;CNN&lt;/b&gt;&lt;/span&gt;" style="rounded=1;whiteSpace=wrap;html=1;fillColor=#dae8fc;strokeColor=#6c8ebf;gradientColor=none;glass=0;shadow=1;" vertex="1" parent="1">
          <mxGeometry x="380" y="342.5" width="120" height="45" as="geometry" />
        </mxCell>
        <mxCell id="4vzzuv3VRGTA68ks-000-15" value="" style="endArrow=none;html=1;rounded=0;exitX=1;exitY=0.5;exitDx=0;exitDy=0;entryX=0;entryY=0.5;entryDx=0;entryDy=0;strokeWidth=2;" edge="1" parent="1" source="4vzzuv3VRGTA68ks-000-6" target="4vzzuv3VRGTA68ks-000-10">
          <mxGeometry width="50" height="50" relative="1" as="geometry">
            <mxPoint x="390" y="420" as="sourcePoint" />
            <mxPoint x="370" y="370" as="targetPoint" />
          </mxGeometry>
        </mxCell>
        <mxCell id="4vzzuv3VRGTA68ks-000-16" value="&lt;span style=&quot;font-size: 18px;&quot;&gt;&lt;b&gt;身体动作&lt;/b&gt;&lt;/span&gt;&lt;div&gt;&lt;span style=&quot;font-size: 18px;&quot;&gt;&lt;b&gt;和&lt;/b&gt;&lt;/span&gt;&lt;b style=&quot;font-size: 18px; background-color: initial;&quot;&gt;姿势分析&lt;/b&gt;&lt;/div&gt;" style="rounded=1;whiteSpace=wrap;html=1;fillColor=#dae8fc;strokeColor=#6c8ebf;gradientColor=none;glass=0;shadow=1;" vertex="1" parent="1">
          <mxGeometry x="620" y="280" width="120" height="70" as="geometry" />
        </mxCell>
        <mxCell id="4vzzuv3VRGTA68ks-000-17" value="" style="strokeWidth=2;html=1;shape=mxgraph.flowchart.annotation_2;align=left;labelPosition=right;pointerEvents=1;" vertex="1" parent="1">
          <mxGeometry x="740" y="265" width="50" height="110" as="geometry" />
        </mxCell>
        <mxCell id="4vzzuv3VRGTA68ks-000-18" value="&lt;span style=&quot;font-size: 18px;&quot;&gt;&lt;b&gt;光流法&lt;/b&gt;&lt;/span&gt;" style="rounded=1;whiteSpace=wrap;html=1;fillColor=#dae8fc;strokeColor=#6c8ebf;gradientColor=none;glass=0;shadow=1;" vertex="1" parent="1">
          <mxGeometry x="790" y="225" width="120" height="70" as="geometry" />
        </mxCell>
        <mxCell id="4vzzuv3VRGTA68ks-000-19" value="&lt;span style=&quot;font-size: 18px;&quot;&gt;&lt;b&gt;人体姿态&lt;/b&gt;&lt;/span&gt;&lt;div&gt;&lt;span style=&quot;font-size: 18px;&quot;&gt;&lt;b&gt;估计技术&lt;/b&gt;&lt;/span&gt;&lt;/div&gt;" style="rounded=1;whiteSpace=wrap;html=1;fillColor=#dae8fc;strokeColor=#6c8ebf;gradientColor=none;glass=0;shadow=1;" vertex="1" parent="1">
          <mxGeometry x="790" y="335" width="120" height="70" as="geometry" />
        </mxCell>
        <mxCell id="4vzzuv3VRGTA68ks-000-23" value="&lt;span style=&quot;font-size: 18px;&quot;&gt;&lt;b&gt;智能数据&lt;/b&gt;&lt;/span&gt;&lt;div&gt;&lt;span style=&quot;font-size: 18px;&quot;&gt;&lt;b&gt;标注框架&lt;/b&gt;&lt;/span&gt;&lt;/div&gt;" style="rounded=1;whiteSpace=wrap;html=1;fillColor=#dae8fc;strokeColor=#6c8ebf;gradientColor=none;glass=0;shadow=1;" vertex="1" parent="1">
          <mxGeometry x="150" y="600" width="110" height="70" as="geometry" />
        </mxCell>
        <mxCell id="4vzzuv3VRGTA68ks-000-27" value="&lt;span style=&quot;font-size: 18px;&quot;&gt;&lt;b&gt;显示面部表情、肢体姿势的关键点&lt;/b&gt;&lt;/span&gt;" style="rounded=1;whiteSpace=wrap;html=1;fillColor=#dae8fc;strokeColor=#6c8ebf;gradientColor=none;glass=0;shadow=1;" vertex="1" parent="1">
          <mxGeometry x="310" y="520" width="290" height="50" as="geometry" />
        </mxCell>
        <mxCell id="4vzzuv3VRGTA68ks-000-28" value="&lt;span style=&quot;font-size: 18px;&quot;&gt;&lt;b&gt;显示疼痛关键帧&lt;/b&gt;&lt;/span&gt;" style="rounded=1;whiteSpace=wrap;html=1;fillColor=#dae8fc;strokeColor=#6c8ebf;gradientColor=none;glass=0;shadow=1;" vertex="1" parent="1">
          <mxGeometry x="310" y="580" width="290" height="50" as="geometry" />
        </mxCell>
        <mxCell id="4vzzuv3VRGTA68ks-000-29" value="&lt;span style=&quot;font-size: 18px;&quot;&gt;&lt;b&gt;交互功能&lt;/b&gt;&lt;/span&gt;" style="rounded=1;whiteSpace=wrap;html=1;fillColor=#dae8fc;strokeColor=#6c8ebf;gradientColor=none;glass=0;shadow=1;" vertex="1" parent="1">
          <mxGeometry x="310" y="640" width="290" height="50" as="geometry" />
        </mxCell>
        <mxCell id="4vzzuv3VRGTA68ks-000-30" value="&lt;span style=&quot;font-size: 18px;&quot;&gt;&lt;b&gt;自动检查一致性&lt;/b&gt;&lt;/span&gt;" style="rounded=1;whiteSpace=wrap;html=1;fillColor=#dae8fc;strokeColor=#6c8ebf;gradientColor=none;glass=0;shadow=1;" vertex="1" parent="1">
          <mxGeometry x="310" y="700" width="290" height="50" as="geometry" />
        </mxCell>
        <mxCell id="4vzzuv3VRGTA68ks-000-31" value="" style="strokeWidth=2;html=1;shape=mxgraph.flowchart.annotation_2;align=left;labelPosition=right;pointerEvents=1;" vertex="1" parent="1">
          <mxGeometry x="260" y="540" width="50" height="190" as="geometry" />
        </mxCell>
      </root>
    </mxGraphModel>
  </diagram>
</mxfile>
